<?xml version="1.0" encoding="UTF-8"?>
<svg id="Layer_1" data-name="Layer 1" xmlns="http://www.w3.org/2000/svg" viewBox="0 0 741 206.5">
  <defs>
    <style>
      .cls-1 {
        fill: #fff;
      }
    </style>
  </defs>
  <path class="cls-1" d="M339.77,157.89c14.14,2.11,22.11-5.26,31.22-14.35,17.61-17.57,47.17-58.42,68-67.26,27.34-11.61,53.54-1.95,72.6,18.99l-53.7,62.62c18.09,3.82,34.66-12.45,32.66-30.64l29.83-2.47.75,1.16c2.91,58.68-73.71,85.28-106.32,36.11l50.2-57.88,1.52-3.75c-8.82-.91-16.3,1.66-23.05,7.17-35.33,28.84-60.22,93.39-116.18,77.61-53.02-14.94-55.56-90.47-3.81-110.14,27.45-10.43,50.88.12,69.99,20.21l-53.71,62.62ZM348.41,100.42c-21.11-1.09-37.26,16.33-31.68,37.36l30.77-33.97.91-3.4Z"/>
  <path class="cls-1" d="M248.54,18.01l30.77,10.21-.06,108.11c-6.93,61.58-94.88,71.86-115.26,13.47-18.28-52.36,35.51-97.68,84.55-73.34V18.01ZM247.93,129.31c0-15.36-12.48-27.82-27.88-27.82s-27.88,12.46-27.88,27.82,12.48,27.82,27.88,27.82,27.88-12.46,27.88-27.82Z"/>
  <polygon class="cls-1" points="12.3 187.61 73.28 25.67 101.17 24.65 163.07 187.61 129.94 187.61 87.22 76.46 46.87 187.61 12.3 187.61"/>
  <path class="cls-1" d="M728.7,144.49h-81.63c-.42,1.67.69,1.92,1.43,2.88,9.95,12.97,31.64,13.1,42.26.97l21.54,21.41c-32.45,36.06-94.91,15.27-100.75-32.45-6.62-54.05,56.21-88.18,97.48-52.24,8.18,7.12,19.66,25.06,19.66,35.96v23.48ZM693.17,113.83c-.64-3.45-4.93-6.3-7.76-8.07-10.88-6.76-24.27-6.16-34.03,2.29-1.56,1.35-4.24,3.54-4.3,5.77h46.1Z"/>
  <path class="cls-1" d="M570.83,149.38c-1.92,2.54-4.63,5.41-5.38,8.52h49.93v.41l-.67,1.54-14.48,27.76h-80.4l-1.44-1.44v-21.08l50.9-64.68h-46.58l-.04-.04.6-1.39,14.6-28-.18-.27h77.69v22.52c-14.19,19.2-30.16,37.12-44.55,56.15Z"/>
</svg>