<?xml version="1.0" encoding="UTF-8"?>
<svg id="Layer_1" data-name="Layer 1" xmlns="http://www.w3.org/2000/svg" viewBox="0 0 1464.89 359.48">
  <defs>
    <style>
      .cls-1 {
        fill: none;
        stroke: #232323;
        stroke-miterlimit: 10;
      }
    </style>
  </defs>
  <path class="cls-1" d="M671.15,290.36c28.2,4.21,44.1-10.49,62.28-28.62,35.12-35.04,94.09-116.52,135.63-134.16,54.53-23.15,106.8-3.88,144.82,37.88l-107.12,124.9c36.09,7.62,69.14-24.84,65.14-61.12l59.5-4.93,1.5,2.32c5.81,117.05-147.04,170.11-212.07,72.03l100.14-115.46,3.02-7.48c-17.58-1.81-32.52,3.31-45.99,14.3-70.48,57.53-120.12,186.28-231.74,154.82-105.77-29.81-110.82-180.47-7.6-219.69,54.75-20.8,101.48.23,139.61,40.32l-107.13,124.9ZM688.38,175.71c-42.11-2.18-74.33,32.57-63.18,74.53l61.37-67.75,1.81-6.77Z"/>
  <path class="cls-1" d="M489.17,11.33l61.38,20.37-.12,215.64c-13.82,122.84-189.25,143.35-229.91,26.86-36.46-104.45,70.83-194.83,168.64-146.29V11.33ZM487.95,233.35c0-30.65-24.9-55.49-55.62-55.49s-55.62,24.84-55.62,55.49,24.9,55.49,55.62,55.49,55.62-24.84,55.62-55.49Z"/>
  <polygon class="cls-1" points="17.94 349.63 139.57 26.62 195.21 24.58 318.69 349.63 252.6 349.63 167.38 127.93 86.9 349.63 17.94 349.63"/>
  <path class="cls-1" d="M1446.94,263.62h-162.82c-.83,3.34,1.38,3.82,2.86,5.75,19.84,25.87,63.11,26.14,84.3,1.93l42.96,42.71c-64.73,71.92-189.31,30.47-200.97-64.73-13.2-107.81,112.13-175.9,194.45-104.2,16.31,14.2,39.22,49.99,39.22,71.72v46.83ZM1376.07,202.46c-1.27-6.88-9.83-12.58-15.48-16.09-21.71-13.49-48.41-12.28-67.89,4.58-3.11,2.69-8.45,7.07-8.58,11.51h91.95Z"/>
  <path class="cls-1" d="M1132.04,273.38c-3.83,5.07-9.24,10.79-10.73,16.99h99.6v.82l-1.34,3.07-28.88,55.37h-160.37l-2.87-2.87v-42.05l101.53-129.02h-92.91l-.08-.08,1.2-2.77,29.12-55.85-.36-.54h154.97v44.92c-28.3,38.3-60.16,74.04-88.86,112Z"/>
</svg>