<?xml version="1.0" encoding="UTF-8"?>
<svg id="Layer_1" data-name="Layer 1" xmlns="http://www.w3.org/2000/svg" xmlns:xlink="http://www.w3.org/1999/xlink" viewBox="0 0 1000 1000">
  <defs>
    <style>
      .cls-1 {
        fill: #f2f2f2;
      }

      .cls-2 {
        fill: url(#linear-gradient);
      }
    </style>
    <linearGradient id="linear-gradient" x1="287.77" y1="497" x2="712.23" y2="497" gradientUnits="userSpaceOnUse">
      <stop offset="0" stop-color="#005dab"/>
      <stop offset=".48" stop-color="#0086f5"/>
      <stop offset="1" stop-color="#005aa7"/>
    </linearGradient>
  </defs>
  <rect class="cls-1" width="1000" height="1000"/>
  <path class="cls-2" d="M384.72,548.51c25.52,3.81,39.91-9.49,56.36-25.9,31.79-31.71,85.15-105.45,122.74-121.41,49.34-20.95,96.65-3.51,131.06,34.28l-96.94,113.03c32.66,6.9,62.57-22.48,58.95-55.31l53.84-4.46,1.36,2.1c5.26,105.92-133.06,153.94-191.91,65.18l90.62-104.49,2.74-6.77c-15.91-1.64-29.43,2.99-41.61,12.94-63.78,52.06-108.7,168.57-209.71,140.1-95.71-26.98-100.29-163.32-6.87-198.81,49.54-18.82,91.84.21,126.34,36.49l-96.95,113.03ZM400.31,444.76c-38.11-1.97-67.26,29.47-57.18,67.44l55.54-61.31,1.64-6.13Z"/>
</svg>