<?xml version="1.0" encoding="UTF-8"?>
<svg id="Layer_1" data-name="Layer 1" xmlns="http://www.w3.org/2000/svg" xmlns:xlink="http://www.w3.org/1999/xlink" viewBox="0 0 1001.22 496.22">
  <defs>
    <style>
      .cls-1 {
        fill: url(#linear-gradient);
      }
    </style>
    <linearGradient id="linear-gradient" x1="7.97" y1="249.77" x2="996" y2="249.77" gradientUnits="userSpaceOnUse">
      <stop offset="0" stop-color="#005dab"/>
      <stop offset=".48" stop-color="#0086f5"/>
      <stop offset="1" stop-color="#005aa7"/>
    </linearGradient>
  </defs>
  <path class="cls-1" d="M233.63,369.68c59.4,8.86,92.9-22.09,131.2-60.29,73.99-73.81,198.21-245.45,285.71-282.61,114.86-48.77,224.98-8.17,305.07,79.8l-225.66,263.1c76.02,16.06,145.64-52.33,137.22-128.76l125.33-10.39,3.16,4.89c12.25,246.56-309.73,358.33-446.73,151.72l210.94-243.22,6.37-15.75c-37.04-3.82-68.5,6.97-96.87,30.13-148.46,121.18-253.04,392.39-488.16,326.12C-41.58,421.63-52.24,104.27,165.21,21.64c115.32-43.82,213.78.49,294.08,84.93l-225.66,263.11ZM269.93,128.18c-88.7-4.59-156.57,68.61-133.1,156.99l129.28-142.72,3.82-14.27Z"/>
</svg>
